<mxfile host="app.diagrams.net" modified="2023-10-09T05:07:21.389Z" agent="Mozilla/5.0 (Windows NT 10.0; Win64; x64) AppleWebKit/537.36 (KHTML, like Gecko) Chrome/117.0.0.0 Safari/537.36 Edg/117.0.2045.60" version="22.0.4" etag="Tc0jyHwT8z8n0tHL_2VO" type="device">
  <diagram id="C5RBs43oDa-KdzZeNtuy" name="Page-1">
    <mxGraphModel dx="1434" dy="764" grid="1" gridSize="10" guides="1" tooltips="1" connect="1" arrows="1" fold="1" page="1" pageScale="1" pageWidth="827" pageHeight="1169" math="0" shadow="0">
      <root>
        <mxCell id="WIyWlLk6GJQsqaUBKTNV-0" />
        <mxCell id="WIyWlLk6GJQsqaUBKTNV-1" parent="WIyWlLk6GJQsqaUBKTNV-0" />
        <mxCell id="717uVuOR2o3GM9MBf3wy-10" value="yes&lt;br&gt;" style="edgeStyle=orthogonalEdgeStyle;rounded=0;orthogonalLoop=1;jettySize=auto;html=1;" edge="1" parent="WIyWlLk6GJQsqaUBKTNV-1" source="717uVuOR2o3GM9MBf3wy-4" target="717uVuOR2o3GM9MBf3wy-9">
          <mxGeometry relative="1" as="geometry" />
        </mxCell>
        <mxCell id="717uVuOR2o3GM9MBf3wy-12" value="" style="edgeStyle=orthogonalEdgeStyle;rounded=0;orthogonalLoop=1;jettySize=auto;html=1;" edge="1" parent="WIyWlLk6GJQsqaUBKTNV-1" source="717uVuOR2o3GM9MBf3wy-4">
          <mxGeometry relative="1" as="geometry">
            <mxPoint x="160" y="110" as="targetPoint" />
          </mxGeometry>
        </mxCell>
        <mxCell id="717uVuOR2o3GM9MBf3wy-4" value="カーソルが範囲内&lt;br&gt;にいるか" style="rhombus;whiteSpace=wrap;html=1;rounded=1;" vertex="1" parent="WIyWlLk6GJQsqaUBKTNV-1">
          <mxGeometry x="6" y="140" width="110" height="80" as="geometry" />
        </mxCell>
        <mxCell id="717uVuOR2o3GM9MBf3wy-18" value="" style="edgeStyle=orthogonalEdgeStyle;rounded=0;orthogonalLoop=1;jettySize=auto;html=1;" edge="1" parent="WIyWlLk6GJQsqaUBKTNV-1" source="717uVuOR2o3GM9MBf3wy-9" target="717uVuOR2o3GM9MBf3wy-17">
          <mxGeometry relative="1" as="geometry" />
        </mxCell>
        <mxCell id="717uVuOR2o3GM9MBf3wy-45" value="z" style="edgeStyle=orthogonalEdgeStyle;rounded=0;orthogonalLoop=1;jettySize=auto;html=1;entryX=0.091;entryY=0.4;entryDx=0;entryDy=0;entryPerimeter=0;" edge="1" parent="WIyWlLk6GJQsqaUBKTNV-1" source="717uVuOR2o3GM9MBf3wy-9" target="717uVuOR2o3GM9MBf3wy-44">
          <mxGeometry relative="1" as="geometry">
            <Array as="points">
              <mxPoint x="61" y="410" />
              <mxPoint x="207" y="410" />
            </Array>
          </mxGeometry>
        </mxCell>
        <mxCell id="717uVuOR2o3GM9MBf3wy-9" value="右かconfirmキー(down)が&lt;br&gt;おされた" style="rhombus;whiteSpace=wrap;html=1;rounded=1;" vertex="1" parent="WIyWlLk6GJQsqaUBKTNV-1">
          <mxGeometry x="6" y="300" width="110" height="80" as="geometry" />
        </mxCell>
        <mxCell id="717uVuOR2o3GM9MBf3wy-22" value="" style="edgeStyle=orthogonalEdgeStyle;rounded=0;orthogonalLoop=1;jettySize=auto;html=1;" edge="1" parent="WIyWlLk6GJQsqaUBKTNV-1" source="717uVuOR2o3GM9MBf3wy-17" target="717uVuOR2o3GM9MBf3wy-21">
          <mxGeometry relative="1" as="geometry" />
        </mxCell>
        <mxCell id="717uVuOR2o3GM9MBf3wy-17" value="conf.type&lt;br&gt;が&quot;bool&quot;" style="rhombus;whiteSpace=wrap;html=1;rounded=1;" vertex="1" parent="WIyWlLk6GJQsqaUBKTNV-1">
          <mxGeometry x="6" y="440" width="104" height="80" as="geometry" />
        </mxCell>
        <mxCell id="717uVuOR2o3GM9MBf3wy-20" value="&lt;div style=&quot;color: rgb(204, 204, 204); background-color: rgb(31, 31, 31); font-family: Consolas, &amp;quot;Courier New&amp;quot;, monospace; font-size: 14px; line-height: 19px;&quot;&gt;conf =&lt;/div&gt;&lt;div style=&quot;color: rgb(204, 204, 204); background-color: rgb(31, 31, 31); font-family: Consolas, &amp;quot;Courier New&amp;quot;, monospace; font-size: 14px; line-height: 19px;&quot;&gt;configs[&lt;span style=&quot;color: #9cdcfe;&quot;&gt;menu&lt;/span&gt;.&lt;span style=&quot;color: #9cdcfe;&quot;&gt;item_select&lt;/span&gt;[&lt;span style=&quot;color: #b5cea8;&quot;&gt;2&lt;/span&gt;]]&lt;/div&gt;&lt;div style=&quot;color: rgb(204, 204, 204); background-color: rgb(31, 31, 31); font-family: Consolas, &amp;quot;Courier New&amp;quot;, monospace; font-size: 14px; line-height: 19px;&quot;&gt;selectされているconfig&lt;/div&gt;" style="text;html=1;align=center;verticalAlign=middle;resizable=0;points=[];autosize=1;strokeColor=none;fillColor=none;" vertex="1" parent="WIyWlLk6GJQsqaUBKTNV-1">
          <mxGeometry x="120" width="240" height="70" as="geometry" />
        </mxCell>
        <mxCell id="717uVuOR2o3GM9MBf3wy-34" value="" style="edgeStyle=orthogonalEdgeStyle;rounded=0;orthogonalLoop=1;jettySize=auto;html=1;" edge="1" parent="WIyWlLk6GJQsqaUBKTNV-1" source="717uVuOR2o3GM9MBf3wy-21" target="717uVuOR2o3GM9MBf3wy-33">
          <mxGeometry relative="1" as="geometry" />
        </mxCell>
        <mxCell id="717uVuOR2o3GM9MBf3wy-21" value="config&lt;br&gt;入れ替え" style="whiteSpace=wrap;html=1;rounded=1;" vertex="1" parent="WIyWlLk6GJQsqaUBKTNV-1">
          <mxGeometry x="6" y="555" width="120" height="60" as="geometry" />
        </mxCell>
        <mxCell id="717uVuOR2o3GM9MBf3wy-41" value="" style="edgeStyle=orthogonalEdgeStyle;rounded=0;orthogonalLoop=1;jettySize=auto;html=1;" edge="1" parent="WIyWlLk6GJQsqaUBKTNV-1" source="717uVuOR2o3GM9MBf3wy-23" target="717uVuOR2o3GM9MBf3wy-40">
          <mxGeometry relative="1" as="geometry" />
        </mxCell>
        <mxCell id="717uVuOR2o3GM9MBf3wy-23" value="config&lt;br&gt;true" style="rhombus;whiteSpace=wrap;html=1;rounded=1;" vertex="1" parent="WIyWlLk6GJQsqaUBKTNV-1">
          <mxGeometry x="3" y="710" width="86" height="80" as="geometry" />
        </mxCell>
        <mxCell id="717uVuOR2o3GM9MBf3wy-26" style="edgeStyle=orthogonalEdgeStyle;rounded=0;orthogonalLoop=1;jettySize=auto;html=1;exitX=0.367;exitY=0.967;exitDx=0;exitDy=0;entryX=0.413;entryY=0.113;entryDx=0;entryDy=0;entryPerimeter=0;exitPerimeter=0;" edge="1" parent="WIyWlLk6GJQsqaUBKTNV-1" source="717uVuOR2o3GM9MBf3wy-21" target="717uVuOR2o3GM9MBf3wy-23">
          <mxGeometry relative="1" as="geometry">
            <Array as="points">
              <mxPoint x="50" y="660" />
              <mxPoint x="32" y="660" />
            </Array>
          </mxGeometry>
        </mxCell>
        <mxCell id="717uVuOR2o3GM9MBf3wy-36" value="" style="edgeStyle=orthogonalEdgeStyle;rounded=0;orthogonalLoop=1;jettySize=auto;html=1;" edge="1" parent="WIyWlLk6GJQsqaUBKTNV-1" source="717uVuOR2o3GM9MBf3wy-33" target="717uVuOR2o3GM9MBf3wy-35">
          <mxGeometry relative="1" as="geometry" />
        </mxCell>
        <mxCell id="717uVuOR2o3GM9MBf3wy-33" value="config&amp;nbsp;&lt;br&gt;false" style="rhombus;whiteSpace=wrap;html=1;rounded=1;" vertex="1" parent="WIyWlLk6GJQsqaUBKTNV-1">
          <mxGeometry x="82" y="710" width="80" height="80" as="geometry" />
        </mxCell>
        <mxCell id="717uVuOR2o3GM9MBf3wy-35" value="&lt;span style=&quot;color: rgb(0, 0, 0); font-family: Helvetica; font-size: 12px; font-style: normal; font-variant-ligatures: normal; font-variant-caps: normal; font-weight: 400; letter-spacing: normal; orphans: 2; text-align: center; text-indent: 0px; text-transform: none; widows: 2; word-spacing: 0px; -webkit-text-stroke-width: 0px; background-color: rgb(251, 251, 251); text-decoration-thickness: initial; text-decoration-style: initial; text-decoration-color: initial; float: none; display: inline !important;&quot;&gt;conf.OFFfunc&lt;/span&gt;&lt;br&gt;実行" style="whiteSpace=wrap;html=1;rounded=1;" vertex="1" parent="WIyWlLk6GJQsqaUBKTNV-1">
          <mxGeometry x="100" y="850" width="74" height="60" as="geometry" />
        </mxCell>
        <mxCell id="717uVuOR2o3GM9MBf3wy-40" value="conf.ONfunc&lt;br&gt;実行" style="whiteSpace=wrap;html=1;rounded=1;" vertex="1" parent="WIyWlLk6GJQsqaUBKTNV-1">
          <mxGeometry x="7" y="850" width="78" height="60" as="geometry" />
        </mxCell>
        <mxCell id="717uVuOR2o3GM9MBf3wy-60" value="" style="edgeStyle=orthogonalEdgeStyle;rounded=0;orthogonalLoop=1;jettySize=auto;html=1;" edge="1" parent="WIyWlLk6GJQsqaUBKTNV-1" source="717uVuOR2o3GM9MBf3wy-44" target="717uVuOR2o3GM9MBf3wy-46">
          <mxGeometry relative="1" as="geometry" />
        </mxCell>
        <mxCell id="717uVuOR2o3GM9MBf3wy-44" value="conf.type&lt;br&gt;が&quot;number&quot;" style="rhombus;whiteSpace=wrap;html=1;rounded=1;" vertex="1" parent="WIyWlLk6GJQsqaUBKTNV-1">
          <mxGeometry x="197" y="440" width="110" height="80" as="geometry" />
        </mxCell>
        <mxCell id="717uVuOR2o3GM9MBf3wy-49" value="" style="edgeStyle=orthogonalEdgeStyle;rounded=0;orthogonalLoop=1;jettySize=auto;html=1;" edge="1" parent="WIyWlLk6GJQsqaUBKTNV-1" source="717uVuOR2o3GM9MBf3wy-46" target="717uVuOR2o3GM9MBf3wy-48">
          <mxGeometry relative="1" as="geometry" />
        </mxCell>
        <mxCell id="717uVuOR2o3GM9MBf3wy-46" value="menu.modeを&lt;br&gt;&quot;configNumEdit&quot;&lt;br&gt;にする" style="whiteSpace=wrap;html=1;rounded=1;" vertex="1" parent="WIyWlLk6GJQsqaUBKTNV-1">
          <mxGeometry x="192" y="610" width="120" height="60" as="geometry" />
        </mxCell>
        <mxCell id="717uVuOR2o3GM9MBf3wy-51" value="" style="edgeStyle=orthogonalEdgeStyle;rounded=0;orthogonalLoop=1;jettySize=auto;html=1;" edge="1" parent="WIyWlLk6GJQsqaUBKTNV-1" source="717uVuOR2o3GM9MBf3wy-48" target="717uVuOR2o3GM9MBf3wy-50">
          <mxGeometry relative="1" as="geometry" />
        </mxCell>
        <mxCell id="717uVuOR2o3GM9MBf3wy-48" value="menu.config_num.mode を 1&lt;br&gt;menu.config_num.timer を 0&lt;br&gt;にする" style="whiteSpace=wrap;html=1;rounded=1;" vertex="1" parent="WIyWlLk6GJQsqaUBKTNV-1">
          <mxGeometry x="163" y="725" width="161" height="60" as="geometry" />
        </mxCell>
        <mxCell id="717uVuOR2o3GM9MBf3wy-50" value="return" style="ellipse;whiteSpace=wrap;html=1;rounded=1;" vertex="1" parent="WIyWlLk6GJQsqaUBKTNV-1">
          <mxGeometry x="191.5" y="840" width="80" height="30" as="geometry" />
        </mxCell>
        <mxCell id="717uVuOR2o3GM9MBf3wy-54" value="" style="edgeStyle=orthogonalEdgeStyle;rounded=0;orthogonalLoop=1;jettySize=auto;html=1;" edge="1" parent="WIyWlLk6GJQsqaUBKTNV-1" source="717uVuOR2o3GM9MBf3wy-52" target="717uVuOR2o3GM9MBf3wy-53">
          <mxGeometry relative="1" as="geometry" />
        </mxCell>
        <mxCell id="717uVuOR2o3GM9MBf3wy-52" value="menu.config_num.timer&lt;br&gt;にnemu.config_num.mode&lt;br&gt;を足す" style="rounded=1;whiteSpace=wrap;html=1;" vertex="1" parent="WIyWlLk6GJQsqaUBKTNV-1">
          <mxGeometry x="680" width="147" height="60" as="geometry" />
        </mxCell>
        <mxCell id="717uVuOR2o3GM9MBf3wy-56" value="" style="edgeStyle=orthogonalEdgeStyle;rounded=0;orthogonalLoop=1;jettySize=auto;html=1;" edge="1" parent="WIyWlLk6GJQsqaUBKTNV-1" source="717uVuOR2o3GM9MBf3wy-53" target="717uVuOR2o3GM9MBf3wy-55">
          <mxGeometry relative="1" as="geometry" />
        </mxCell>
        <mxCell id="717uVuOR2o3GM9MBf3wy-53" value="menu.config_num.timer&lt;br&gt;が-1" style="rhombus;whiteSpace=wrap;html=1;rounded=1;" vertex="1" parent="WIyWlLk6GJQsqaUBKTNV-1">
          <mxGeometry x="686.75" y="80" width="133.5" height="80" as="geometry" />
        </mxCell>
        <mxCell id="717uVuOR2o3GM9MBf3wy-55" value="menu.config_num.timer&lt;br&gt;にnemu.config_num.mode&lt;br&gt;を足す" style="rounded=1;whiteSpace=wrap;html=1;" vertex="1" parent="WIyWlLk6GJQsqaUBKTNV-1">
          <mxGeometry x="680" y="190" width="147" height="60" as="geometry" />
        </mxCell>
        <mxCell id="717uVuOR2o3GM9MBf3wy-57" value="" style="edgeStyle=orthogonalEdgeStyle;rounded=0;orthogonalLoop=1;jettySize=auto;html=1;exitX=0.5;exitY=1;exitDx=0;exitDy=0;" edge="1" parent="WIyWlLk6GJQsqaUBKTNV-1" source="717uVuOR2o3GM9MBf3wy-4" target="717uVuOR2o3GM9MBf3wy-62">
          <mxGeometry y="73" relative="1" as="geometry">
            <mxPoint x="60" y="250" as="sourcePoint" />
            <mxPoint x="400" y="290" as="targetPoint" />
            <Array as="points">
              <mxPoint x="61" y="250" />
              <mxPoint x="408" y="250" />
            </Array>
            <mxPoint x="-3" y="-20" as="offset" />
          </mxGeometry>
        </mxCell>
        <mxCell id="717uVuOR2o3GM9MBf3wy-69" value="" style="edgeStyle=orthogonalEdgeStyle;rounded=0;orthogonalLoop=1;jettySize=auto;html=1;" edge="1" parent="WIyWlLk6GJQsqaUBKTNV-1" source="717uVuOR2o3GM9MBf3wy-58" target="717uVuOR2o3GM9MBf3wy-65">
          <mxGeometry relative="1" as="geometry" />
        </mxCell>
        <mxCell id="717uVuOR2o3GM9MBf3wy-58" value="conf.type&lt;br&gt;が&quot;number&quot;" style="rhombus;whiteSpace=wrap;html=1;rounded=1;" vertex="1" parent="WIyWlLk6GJQsqaUBKTNV-1">
          <mxGeometry x="350" y="430" width="110" height="80" as="geometry" />
        </mxCell>
        <mxCell id="717uVuOR2o3GM9MBf3wy-63" value="" style="edgeStyle=orthogonalEdgeStyle;rounded=0;orthogonalLoop=1;jettySize=auto;html=1;" edge="1" parent="WIyWlLk6GJQsqaUBKTNV-1" source="717uVuOR2o3GM9MBf3wy-62" target="717uVuOR2o3GM9MBf3wy-58">
          <mxGeometry relative="1" as="geometry" />
        </mxCell>
        <mxCell id="717uVuOR2o3GM9MBf3wy-62" value="左かcancelキー(down)が&lt;br&gt;おされた" style="rhombus;whiteSpace=wrap;html=1;rounded=1;" vertex="1" parent="WIyWlLk6GJQsqaUBKTNV-1">
          <mxGeometry x="353" y="300" width="110" height="80" as="geometry" />
        </mxCell>
        <mxCell id="717uVuOR2o3GM9MBf3wy-64" value="" style="edgeStyle=orthogonalEdgeStyle;rounded=0;orthogonalLoop=1;jettySize=auto;html=1;" edge="1" parent="WIyWlLk6GJQsqaUBKTNV-1" source="717uVuOR2o3GM9MBf3wy-65" target="717uVuOR2o3GM9MBf3wy-66">
          <mxGeometry relative="1" as="geometry" />
        </mxCell>
        <mxCell id="717uVuOR2o3GM9MBf3wy-65" value="menu.modeを&lt;br&gt;&quot;Default&quot;&lt;br&gt;にする" style="whiteSpace=wrap;html=1;rounded=1;" vertex="1" parent="WIyWlLk6GJQsqaUBKTNV-1">
          <mxGeometry x="353" y="610" width="120" height="60" as="geometry" />
        </mxCell>
        <mxCell id="717uVuOR2o3GM9MBf3wy-68" value="" style="edgeStyle=orthogonalEdgeStyle;rounded=0;orthogonalLoop=1;jettySize=auto;html=1;" edge="1" parent="WIyWlLk6GJQsqaUBKTNV-1" source="717uVuOR2o3GM9MBf3wy-66" target="717uVuOR2o3GM9MBf3wy-67">
          <mxGeometry relative="1" as="geometry" />
        </mxCell>
        <mxCell id="717uVuOR2o3GM9MBf3wy-66" value="menu.config_num.mode を -1&lt;br&gt;menu.config_num.timer を 100&lt;br&gt;にする" style="whiteSpace=wrap;html=1;rounded=1;" vertex="1" parent="WIyWlLk6GJQsqaUBKTNV-1">
          <mxGeometry x="324" y="725" width="176" height="60" as="geometry" />
        </mxCell>
        <mxCell id="717uVuOR2o3GM9MBf3wy-67" value="return" style="ellipse;whiteSpace=wrap;html=1;rounded=1;" vertex="1" parent="WIyWlLk6GJQsqaUBKTNV-1">
          <mxGeometry x="373" y="840" width="80" height="30" as="geometry" />
        </mxCell>
        <mxCell id="717uVuOR2o3GM9MBf3wy-70" value="" style="edgeStyle=orthogonalEdgeStyle;rounded=0;orthogonalLoop=1;jettySize=auto;html=1;entryX=0.5;entryY=0;entryDx=0;entryDy=0;" edge="1" parent="WIyWlLk6GJQsqaUBKTNV-1" source="717uVuOR2o3GM9MBf3wy-4" target="717uVuOR2o3GM9MBf3wy-71">
          <mxGeometry y="73" relative="1" as="geometry">
            <mxPoint x="210" y="220" as="sourcePoint" />
            <mxPoint x="560" y="310" as="targetPoint" />
            <Array as="points">
              <mxPoint x="61" y="250" />
              <mxPoint x="557" y="250" />
              <mxPoint x="557" y="330" />
            </Array>
            <mxPoint x="-3" y="-20" as="offset" />
          </mxGeometry>
        </mxCell>
        <mxCell id="717uVuOR2o3GM9MBf3wy-73" value="" style="edgeStyle=orthogonalEdgeStyle;rounded=0;orthogonalLoop=1;jettySize=auto;html=1;" edge="1" parent="WIyWlLk6GJQsqaUBKTNV-1" source="717uVuOR2o3GM9MBf3wy-71" target="717uVuOR2o3GM9MBf3wy-72">
          <mxGeometry relative="1" as="geometry" />
        </mxCell>
        <mxCell id="717uVuOR2o3GM9MBf3wy-75" value="" style="edgeStyle=orthogonalEdgeStyle;rounded=0;orthogonalLoop=1;jettySize=auto;html=1;entryX=0.59;entryY=0.113;entryDx=0;entryDy=0;entryPerimeter=0;" edge="1" parent="WIyWlLk6GJQsqaUBKTNV-1" source="717uVuOR2o3GM9MBf3wy-71" target="717uVuOR2o3GM9MBf3wy-76">
          <mxGeometry relative="1" as="geometry">
            <mxPoint x="650" y="460" as="targetPoint" />
            <Array as="points">
              <mxPoint x="555" y="410" />
              <mxPoint x="656" y="410" />
            </Array>
          </mxGeometry>
        </mxCell>
        <mxCell id="717uVuOR2o3GM9MBf3wy-71" value="menu.modeが&lt;br&gt;&quot;configNumEdit&quot;" style="rhombus;whiteSpace=wrap;html=1;rounded=1;" vertex="1" parent="WIyWlLk6GJQsqaUBKTNV-1">
          <mxGeometry x="500" y="300" width="110" height="80" as="geometry" />
        </mxCell>
        <mxCell id="717uVuOR2o3GM9MBf3wy-78" value="" style="edgeStyle=orthogonalEdgeStyle;rounded=0;orthogonalLoop=1;jettySize=auto;html=1;" edge="1" parent="WIyWlLk6GJQsqaUBKTNV-1" source="717uVuOR2o3GM9MBf3wy-72" target="717uVuOR2o3GM9MBf3wy-77">
          <mxGeometry relative="1" as="geometry" />
        </mxCell>
        <mxCell id="717uVuOR2o3GM9MBf3wy-72" value="上キー(hold)がおされた" style="rhombus;whiteSpace=wrap;html=1;rounded=1;" vertex="1" parent="WIyWlLk6GJQsqaUBKTNV-1">
          <mxGeometry x="520" y="460" width="75" height="80" as="geometry" />
        </mxCell>
        <mxCell id="717uVuOR2o3GM9MBf3wy-80" value="" style="edgeStyle=orthogonalEdgeStyle;rounded=0;orthogonalLoop=1;jettySize=auto;html=1;" edge="1" parent="WIyWlLk6GJQsqaUBKTNV-1" source="717uVuOR2o3GM9MBf3wy-76" target="717uVuOR2o3GM9MBf3wy-79">
          <mxGeometry relative="1" as="geometry" />
        </mxCell>
        <mxCell id="717uVuOR2o3GM9MBf3wy-76" value="下キー(hold)がおされた" style="rhombus;whiteSpace=wrap;html=1;rounded=1;" vertex="1" parent="WIyWlLk6GJQsqaUBKTNV-1">
          <mxGeometry x="611.75" y="460" width="75" height="80" as="geometry" />
        </mxCell>
        <mxCell id="717uVuOR2o3GM9MBf3wy-82" value="" style="edgeStyle=orthogonalEdgeStyle;rounded=0;orthogonalLoop=1;jettySize=auto;html=1;" edge="1" parent="WIyWlLk6GJQsqaUBKTNV-1" source="717uVuOR2o3GM9MBf3wy-77" target="717uVuOR2o3GM9MBf3wy-81">
          <mxGeometry relative="1" as="geometry" />
        </mxCell>
        <mxCell id="717uVuOR2o3GM9MBf3wy-77" value="範囲内なら&lt;br&gt;(config&amp;lt;range.max)&lt;br&gt;" style="rhombus;whiteSpace=wrap;html=1;rounded=1;" vertex="1" parent="WIyWlLk6GJQsqaUBKTNV-1">
          <mxGeometry x="480" y="600" width="130" height="70" as="geometry" />
        </mxCell>
        <mxCell id="717uVuOR2o3GM9MBf3wy-86" value="" style="edgeStyle=orthogonalEdgeStyle;rounded=0;orthogonalLoop=1;jettySize=auto;html=1;" edge="1" parent="WIyWlLk6GJQsqaUBKTNV-1" source="717uVuOR2o3GM9MBf3wy-79" target="717uVuOR2o3GM9MBf3wy-85">
          <mxGeometry relative="1" as="geometry" />
        </mxCell>
        <mxCell id="717uVuOR2o3GM9MBf3wy-79" value="範囲内なら&lt;br&gt;(config&amp;gt;range.min)" style="rhombus;whiteSpace=wrap;html=1;rounded=1;" vertex="1" parent="WIyWlLk6GJQsqaUBKTNV-1">
          <mxGeometry x="611.75" y="590" width="130" height="70" as="geometry" />
        </mxCell>
        <mxCell id="717uVuOR2o3GM9MBf3wy-81" value="configに１を足す" style="whiteSpace=wrap;html=1;rounded=1;" vertex="1" parent="WIyWlLk6GJQsqaUBKTNV-1">
          <mxGeometry x="516.75" y="740" width="95" height="40" as="geometry" />
        </mxCell>
        <mxCell id="717uVuOR2o3GM9MBf3wy-85" value="&lt;span style=&quot;color: rgb(0, 0, 0); font-family: Helvetica; font-size: 12px; font-style: normal; font-variant-ligatures: normal; font-variant-caps: normal; font-weight: 400; letter-spacing: normal; orphans: 2; text-align: center; text-indent: 0px; text-transform: none; widows: 2; word-spacing: 0px; -webkit-text-stroke-width: 0px; background-color: rgb(251, 251, 251); text-decoration-thickness: initial; text-decoration-style: initial; text-decoration-color: initial; float: none; display: inline !important;&quot;&gt;configに１を引く&lt;/span&gt;" style="whiteSpace=wrap;html=1;rounded=1;" vertex="1" parent="WIyWlLk6GJQsqaUBKTNV-1">
          <mxGeometry x="627.63" y="740" width="98.25" height="40" as="geometry" />
        </mxCell>
        <mxCell id="717uVuOR2o3GM9MBf3wy-92" style="edgeStyle=orthogonalEdgeStyle;rounded=0;orthogonalLoop=1;jettySize=auto;html=1;exitX=0.5;exitY=1;exitDx=0;exitDy=0;entryX=0.5;entryY=0;entryDx=0;entryDy=0;" edge="1" parent="WIyWlLk6GJQsqaUBKTNV-1" source="717uVuOR2o3GM9MBf3wy-91" target="717uVuOR2o3GM9MBf3wy-4">
          <mxGeometry relative="1" as="geometry" />
        </mxCell>
        <mxCell id="717uVuOR2o3GM9MBf3wy-91" value="config選択されている" style="rhombus;whiteSpace=wrap;html=1;rounded=1;" vertex="1" parent="WIyWlLk6GJQsqaUBKTNV-1">
          <mxGeometry x="10" y="10" width="110" height="80" as="geometry" />
        </mxCell>
      </root>
    </mxGraphModel>
  </diagram>
</mxfile>
